<svg width="46" height="46" viewBox="0 0 46 46" fill="none" xmlns="http://www.w3.org/2000/svg">
<path d="M35.1026 20.188C34.4488 20.8458 33.9482 21.6396 33.6363 22.5129C33.3244 23.3862 33.209 24.3176 33.2982 25.2407L33.2671 25.2096C33.3589 26.2962 33.2123 27.3895 32.8378 28.4137C32.4632 29.4377 31.8698 30.3676 31.0989 31.1387C30.3278 31.9096 29.3979 32.5032 28.3737 32.8776C27.3497 33.2521 26.2562 33.3987 25.1698 33.3069L25.2009 33.338C23.9012 33.217 22.5959 33.4998 21.4627 34.1479C20.3297 34.796 19.4241 35.7777 18.8695 36.9593C18.3149 38.141 18.138 39.4648 18.3633 40.7506C18.5888 42.0363 19.2052 43.2212 20.1286 44.1437C21.052 45.0663 22.2374 45.6816 23.5233 45.9057C24.8093 46.1299 26.1329 45.9519 27.314 45.3963C28.4952 44.8405 29.476 43.9342 30.1231 42.8005C30.7701 41.6668 31.0518 40.3613 30.9297 39.0616L30.9625 39.0927C30.8707 38.0062 31.0171 36.9128 31.3917 35.8886C31.7662 34.8646 32.3597 33.9347 33.1307 33.1636C33.9018 32.3926 34.8317 31.7991 35.8557 31.4247C36.8799 31.0502 37.9732 30.9036 39.0598 30.9954L39.027 30.9643C40.0886 31.0597 41.1572 30.8857 42.1338 30.4582C43.1102 30.0307 43.963 29.3637 44.613 28.5189C45.263 27.6742 45.6894 26.6788 45.8523 25.6255C46.0153 24.572 45.9097 23.4946 45.5454 22.4927C45.1811 21.4909 44.5697 20.5974 43.7681 19.8948C42.9665 19.1922 42.0004 18.7033 40.9596 18.4735C39.9187 18.2437 38.8366 18.2803 37.8136 18.58C36.7907 18.8798 35.86 19.4328 35.1077 20.188H35.1026Z" fill="#9200EC"/>
<path d="M22.377 29.2703L22.3442 29.2393C23.2676 29.3322 24.2002 29.2189 25.0746 28.9074C25.9488 28.5958 26.743 28.094 27.3996 27.438C28.056 26.7819 28.5586 25.9881 28.8707 25.114C29.1829 24.2399 29.297 23.3076 29.2047 22.384L29.2374 22.415C29.1457 21.3284 29.2923 20.2351 29.6666 19.2109C30.0411 18.187 30.6347 17.257 31.4056 16.4859C32.1767 15.715 33.1067 15.1214 34.1307 14.7471C35.1548 14.3725 36.2481 14.226 37.3348 14.3177L37.302 14.2867C38.6018 14.4088 39.9075 14.1269 41.0412 13.4795C42.175 12.8322 43.0814 11.8509 43.6368 10.6694C44.1923 9.48803 44.3698 8.16402 44.1452 6.87799C43.9206 5.59196 43.3047 4.40655 42.3815 3.48341C41.4584 2.5603 40.273 1.94439 38.987 1.71976C37.701 1.49511 36.377 1.67263 35.1955 2.22812C34.0141 2.7836 33.0329 3.69002 32.3855 4.82373C31.7381 5.95742 31.4562 7.26322 31.5783 8.563L31.5473 8.53023C31.6392 9.61681 31.4929 10.7104 31.1186 11.7346C30.7443 12.7587 30.1507 13.6889 29.3798 14.46C28.6087 15.2309 27.6785 15.8245 26.6544 16.1989C25.6301 16.5732 24.5366 16.7195 23.45 16.6275L23.481 16.6603C22.5576 16.5673 21.6249 16.6807 20.7506 16.9922C19.8764 17.3036 19.0822 17.8056 18.4256 18.4616C17.7691 19.1176 17.2666 19.9115 16.9543 20.7856C16.6423 21.6596 16.5283 22.592 16.6205 23.5156L16.5895 23.4845C16.6809 24.571 16.5341 25.6643 16.1596 26.6883C15.7849 27.7121 15.1915 28.6421 14.4206 29.413C13.6496 30.1839 12.7198 30.7773 11.6958 31.152C10.6719 31.5265 9.57863 31.6733 8.49218 31.5819L8.52324 31.6129C7.22346 31.4908 5.91766 31.7726 4.78395 32.42C3.65026 33.0675 2.74384 34.0487 2.18836 35.2301C1.63286 36.4116 1.45532 37.7356 1.67997 39.0216C1.90463 40.3076 2.52053 41.493 3.44365 42.4161C4.36678 43.3393 5.55219 43.9552 6.83822 44.1798C8.12425 44.4044 9.44827 44.2269 10.6297 43.6714C11.8111 43.1159 12.7924 42.2096 13.4398 41.0759C14.0872 39.9421 14.369 38.6364 14.2469 37.3366L14.2797 37.3676C14.1879 36.281 14.3345 35.1877 14.709 34.1635C15.0834 33.1396 15.677 32.2096 16.4479 31.4385C17.219 30.6676 18.1489 30.074 19.1729 29.6997C20.1971 29.3252 21.2904 29.1785 22.377 29.2703Z" fill="#9200EC"/>
<path d="M10.8158 25.8082C11.4696 25.1506 11.9702 24.3567 12.2818 23.4834C12.5934 22.61 12.7084 21.6784 12.6184 20.7556L12.6512 20.7866C12.5594 19.6998 12.706 18.606 13.0807 17.5817C13.4554 16.5573 14.0492 15.6272 14.8206 14.8561C15.5921 14.0851 16.5224 13.4917 17.5469 13.1174C18.5714 12.7432 19.6652 12.597 20.752 12.6893L20.7192 12.6582C22.0185 12.78 23.3238 12.498 24.457 11.8507C25.5902 11.2034 26.496 10.2223 27.0513 9.04125C27.6064 7.86019 27.7837 6.53665 27.5591 5.25111C27.3345 3.96556 26.7187 2.7806 25.796 1.85781C24.8733 0.935021 23.6882 0.319322 22.4027 0.0946879C21.1172 -0.129963 19.7936 0.0474048 18.6126 0.602555C17.4315 1.15771 16.4504 2.06364 15.8032 3.19682C15.1558 4.32999 14.8738 5.63526 14.9955 6.93459L14.9645 6.90354C15.0563 7.99005 14.9096 9.0835 14.5351 10.1075C14.1606 11.1316 13.5673 12.0616 12.7962 12.8326C12.0252 13.6036 11.0952 14.1971 10.0712 14.5715C9.04713 14.946 7.9537 15.0926 6.86719 15.0008L6.89824 15.0319C5.8366 14.9367 4.7681 15.1111 3.79176 15.5387C2.81543 15.9663 1.96283 16.6336 1.31299 17.4785C0.663153 18.3233 0.237104 19.3186 0.0742953 20.3719C-0.0884961 21.4254 0.0172312 22.5028 0.381679 23.5044C0.746127 24.5061 1.35753 25.3995 2.15921 26.102C2.96088 26.8046 3.9269 27.2933 4.96775 27.523C6.00858 27.7526 7.09058 27.7159 8.11347 27.4163C9.13635 27.1164 10.067 26.5634 10.8192 25.8082H10.8158Z" fill="#9200EC"/>
</svg>
